<?xml version="1.0"?>
<svg xmlns="http://www.w3.org/2000/svg" xmlns:xlink="http://www.w3.org/1999/xlink" xmlns:svgjs="http://svgjs.com/svgjs" version="1.1" width="512" height="512" x="0" y="0" viewBox="0 0 64 64" style="enable-background:new 0 0 512 512" xml:space="preserve" class=""><g><path xmlns="http://www.w3.org/2000/svg" d="m21 53h-4c-.552 0-1 .447-1 1v4c0 .553.448 1 1 1h4c.552 0 1-.447 1-1v-4c0-.553-.448-1-1-1zm-1 4h-2v-2h2z" fill="#ffffff" data-original="#000000" style=""/><path xmlns="http://www.w3.org/2000/svg" d="m29 53h-4c-.552 0-1 .447-1 1v4c0 .553.448 1 1 1h4c.552 0 1-.447 1-1v-4c0-.553-.448-1-1-1zm-1 4h-2v-2h2z" fill="#ffffff" data-original="#000000" style=""/><path xmlns="http://www.w3.org/2000/svg" d="m37 53h-4c-.552 0-1 .447-1 1v4c0 .553.448 1 1 1h4c.552 0 1-.447 1-1v-4c0-.553-.448-1-1-1zm-1 4h-2v-2h2z" fill="#ffffff" data-original="#000000" style=""/><path xmlns="http://www.w3.org/2000/svg" d="m21 45h-4c-.552 0-1 .447-1 1v4c0 .553.448 1 1 1h4c.552 0 1-.447 1-1v-4c0-.553-.448-1-1-1zm-1 4h-2v-2h2z" fill="#ffffff" data-original="#000000" style=""/><path xmlns="http://www.w3.org/2000/svg" d="m29 45h-4c-.552 0-1 .447-1 1v4c0 .553.448 1 1 1h4c.552 0 1-.447 1-1v-4c0-.553-.448-1-1-1zm-1 4h-2v-2h2z" fill="#ffffff" data-original="#000000" style=""/><path xmlns="http://www.w3.org/2000/svg" d="m37 45h-4c-.552 0-1 .447-1 1v4c0 .553.448 1 1 1h4c.552 0 1-.447 1-1v-4c0-.553-.448-1-1-1zm-1 4h-2v-2h2z" fill="#ffffff" data-original="#000000" style=""/><path xmlns="http://www.w3.org/2000/svg" d="m21 37h-4c-.552 0-1 .447-1 1v4c0 .553.448 1 1 1h4c.552 0 1-.447 1-1v-4c0-.553-.448-1-1-1zm-1 4h-2v-2h2z" fill="#ffffff" data-original="#000000" style=""/><path xmlns="http://www.w3.org/2000/svg" d="m29 37h-4c-.552 0-1 .447-1 1v4c0 .553.448 1 1 1h4c.552 0 1-.447 1-1v-4c0-.553-.448-1-1-1zm-1 4h-2v-2h2z" fill="#ffffff" data-original="#000000" style=""/><path xmlns="http://www.w3.org/2000/svg" d="m37 37h-4c-.552 0-1 .447-1 1v4c0 .553.448 1 1 1h4c.552 0 1-.447 1-1v-4c0-.553-.448-1-1-1zm-1 4h-2v-2h2z" fill="#ffffff" data-original="#000000" style=""/><path xmlns="http://www.w3.org/2000/svg" d="m37 25h-20c-.552 0-1 .447-1 1v8c0 .553.448 1 1 1h20c.552 0 1-.447 1-1v-8c0-.553-.448-1-1-1zm-1 8h-18v-6h18z" fill="#ffffff" data-original="#000000" style=""/><path xmlns="http://www.w3.org/2000/svg" d="m53 25v-7c0-3.859-3.14-7-7-7h-3c-3.519 0-6.432 2.614-6.92 6h-1.08c-.552 0-1 .447-1 1v3h-12v-2h2v-2h-2v-3c0-.553-.448-1-1-1h-3v-12h-2v12h-1c-.552 0-1 .447-1 1v3h-2v2h2v2.184c-1.161.414-2 1.514-2 2.816v1h-3c-.552 0-1 .447-1 1v19h2v-18h2v33c0 1.654 1.346 3 3 3h24c1.654 0 3-1.346 3-3v-1c6.065 0 11-4.935 11-11v-9h2v-2h-6v2h2v9c0 4.963-4.038 9-9 9v-6h3c.552 0 1-.447 1-1v-6c0-.553-.448-1-1-1h-3v-2h3c.552 0 1-.447 1-1v-14c0-.553-.448-1-1-1h-3v-1c0-1.302-.839-2.402-2-2.816v-3.184c0-.553-.448-1-1-1h-.899c.465-2.279 2.484-4 4.899-4h3c2.757 0 5 2.243 5 5v7h-2v2h6v-2zm-17-6h2v2h-2zm-20-4h4v2h-4zm4 4v2h-4v-2zm20 41c0 .552-.449 1-1 1h-24c-.551 0-1-.448-1-1v-36c0-.552.449-1 1-1h24c.551 0 1 .448 1 1zm4-15v4h-2v-4zm0-18v12h-2v-12z" fill="#ffffff" data-original="#000000" style=""/><path xmlns="http://www.w3.org/2000/svg" d="m49 28h6v2h-6z" fill="#ffffff" data-original="#000000" style=""/><path xmlns="http://www.w3.org/2000/svg" d="m49 31h6v2h-6z" fill="#ffffff" data-original="#000000" style=""/><path xmlns="http://www.w3.org/2000/svg" d="m49 34h6v2h-6z" fill="#ffffff" data-original="#000000" style=""/></g></svg>
